<svg xmlns="http://www.w3.org/2000/svg" viewBox="0 0 1200 791.72">
  <g>
    <path d="M282.5,699.9l-48.3-96.7a14.23,14.23,0,0,0-12.5-7.7H196.5a14,14,0,0,0-12.5,7.7l-48.1,96.7a2.43,2.43,0,0,0,1.1,3.4,2.66,2.66,0,0,0,1.2.3h21.6a3.58,3.58,0,0,0,3.2-1.9l10.6-21.2H245l10.6,21.2a3.22,3.22,0,0,0,3.2,1.9h21.6A2.53,2.53,0,0,0,282.5,699.9Zm-98.4-40.8,20.1-40.4a3,3,0,0,1,2.4-1.5h5a2.37,2.37,0,0,1,2.4,1.5l20.1,40.4Zm1015.9-61v16.4a2.65,2.65,0,0,1-2.6,2.6h-43.6v98a1.9,1.9,0,0,1-1.9,1.9,2.45,2.45,0,0,1-1.2-.4L1129,698.2a7.32,7.32,0,0,1-2.6-5.7V617.2h-34.7a5.31,5.31,0,0,1-4.7-3l-8.4-16.8a1.28,1.28,0,0,1,.5-1.7,1.27,1.27,0,0,1,.6-.1h117.4A2.71,2.71,0,0,1,1200,598.1ZM966.1,619v20h79.6a10.8,10.8,0,0,1,0,21.6H966.1v14.9a7,7,0,0,0,6.9,6.9h89.6a2.65,2.65,0,0,1,2.6,2.6v16.4a2.8,2.8,0,0,1-2.6,2.6H965.7a27.72,27.72,0,0,1-27.6-27.6v-67a13.74,13.74,0,0,1,13.7-13.8h110.8a2.65,2.65,0,0,1,2.6,2.6v16.4a2.8,2.8,0,0,1-2.6,2.6H967.7A1.64,1.64,0,0,0,966.1,619Zm-51.2-20.1v94.9a13.49,13.49,0,0,1-13.4,13.5,13.17,13.17,0,0,1-8.7-3.2L809,633v67.5a3.49,3.49,0,0,1-3.3,3.4h-21a3.44,3.44,0,0,1-3.5-3.3V605.9a13.51,13.51,0,0,1,13.5-13.5,13.17,13.17,0,0,1,8.7,3.2l83.7,71V599.1a3.44,3.44,0,0,1,3.3-3.5h21.1a3.36,3.36,0,0,1,3.5,3.2c-.1,0-.1,0-.1.1ZM654.1,619v20h55.3a10.8,10.8,0,1,1,0,21.6H654.1v14.9a7,7,0,0,0,6.9,6.9h89.7a2.65,2.65,0,0,1,2.6,2.6v16.4a2.65,2.65,0,0,1-2.6,2.6H653.8a27.66,27.66,0,0,1-27.6-27.6v-67a13.74,13.74,0,0,1,13.7-13.8H750.7a2.65,2.65,0,0,1,2.6,2.6v16.4a2.65,2.65,0,0,1-2.6,2.6H655.8A1.65,1.65,0,0,0,654.1,619Zm-39.5,65.6V701a2.65,2.65,0,0,1-2.6,2.6H534.1A27.66,27.66,0,0,1,506.5,676V598.1a2.65,2.65,0,0,1,2.6-2.6H532a2.65,2.65,0,0,1,2.6,2.6v77a7,7,0,0,0,6.9,6.9H612a2.65,2.65,0,0,1,2.6,2.6ZM491.8,598.1v16.4a2.65,2.65,0,0,1-2.6,2.6H448.6v98a2,2,0,0,1-1.9,1.9,2.45,2.45,0,0,1-1.2-.4L423.6,698a7.32,7.32,0,0,1-2.6-5.7V617H394.5a5.31,5.31,0,0,1-4.7-3l-8.4-16.8c-.4-.8.2-1.7,1.3-1.7H489.1A2.74,2.74,0,0,1,491.8,598.1ZM106.2,648.5c5-1.9,15.3-6.7,15.3-20.5,0-23.7-17.5-32.4-38.6-32.4H2.6A2.65,2.65,0,0,0,0,598.2V701a2.65,2.65,0,0,0,2.6,2.6H93.2c13.2-.2,32.2-7.7,32.2-32.1C125.4,656.3,111.8,649.9,106.2,648.5ZM27.6,618.8a1.58,1.58,0,0,1,1.5-1.7H78.9c5.2,0,16.6,0,16.6,10.8s-11.6,10.8-16.6,10.8H27.6Zm57.4,63H29.3a1.57,1.57,0,0,1-1.7-1.4v-20H85c5.6,0,14.5,0,14.5,10.8,0,11-10.2,10.6-14.5,10.6Zm283.1-83.6v16.4a2.65,2.65,0,0,1-2.6,2.6H333.6v98a1.9,1.9,0,0,1-1.9,1.9,2.45,2.45,0,0,1-1.2-.4L308.6,698a7.32,7.32,0,0,1-2.6-5.7V617H271.5a5.31,5.31,0,0,1-4.7-3l-8.4-16.8a1.3,1.3,0,0,1,1-1.6h106a2.67,2.67,0,0,1,2.7,2.6ZM597.6,775.7c-.6-.4-2.1-1.4-3.5-2.5a1.5,1.5,0,0,0-1.1-.4,1.83,1.83,0,0,0-1.8,1.6c-.5,6-1.5,6.3-1.5,6.3-.7-.1-2-.9-3.7-5.5a68.6,68.6,0,0,0,9.8-18.8,1.77,1.77,0,0,0-.8-2.1l-4-2.3a2.92,2.92,0,0,0-.9-.2,2,2,0,0,0-1.7,1.2,64.46,64.46,0,0,1-4.9,10.8c-.6-3.6-1.1-7.4-1.5-11.3,0-.1,0-.2.1-.2l13.5-2a1.85,1.85,0,0,0,1.2-.7,1.52,1.52,0,0,0,.3-1.3l-.7-4.3a2.16,2.16,0,0,0-2.2-1.8h-.3l-4.7.7-7.8,1.1h0c-.1,0-.1,0-.2-.1-.4-5.6-.6-11.4-.7-17a1.75,1.75,0,0,0-1.7-1.7h-5.4a2.11,2.11,0,0,0-1.3.5,1.9,1.9,0,0,0-.5,1.3c.2,7,.5,12.9.8,18.2,0,.1,0,.1-.1.2l-6.7.9a1.85,1.85,0,0,0-1.2.7,1.52,1.52,0,0,0-.3,1.3l.8,4.9a1.72,1.72,0,0,0,1.7,1.5h.2l6.1-.9h0a.35.35,0,0,1,.2.1,150.07,150.07,0,0,0,3.1,19.9,44.75,44.75,0,0,1-11.6,9.1V758.1a2.33,2.33,0,0,0-2.3-2.3H552.1a.1.1,0,0,1-.1-.1V745.5a.1.1,0,0,1,.1-.1h11.6a1.79,1.79,0,0,0,1.8-1.8v-5a1.79,1.79,0,0,0-1.8-1.8H552.1a.1.1,0,0,1-.1-.1v-9.6a1.79,1.79,0,0,0-1.8-1.8h-5.7a1.79,1.79,0,0,0-1.8,1.8v28.6a.1.1,0,0,1-.1.1h-7.4a2.33,2.33,0,0,0-2.3,2.3v31a1.32,1.32,0,0,0,1.3,1.3h5.9a1.32,1.32,0,0,0,1.3-1.3v-2.7H556v2.3a1.32,1.32,0,0,0,1.3,1.3h6.2a1.32,1.32,0,0,0,1.3-1.3v-2.9a35.89,35.89,0,0,1,3.9,3.9,1.61,1.61,0,0,0,1.1.5,2.35,2.35,0,0,0,.8-.2,40.39,40.39,0,0,0,8.8-7c2.7,5.7,6.1,8.5,10.3,8.7h.1c4.1,0,6.9-4.8,8.5-14.1A1.7,1.7,0,0,0,597.6,775.7ZM556,777.3a.1.1,0,0,1-.1.1H542.1a.1.1,0,0,1-.1-.1V764.5a.1.1,0,0,1,.1-.1h13.8a.1.1,0,0,1,.1.1Zm108.7-49H607.6a2,2,0,0,0-2,2v54.1a2.13,2.13,0,0,0,.7,1.5l6.2,5.3a1.61,1.61,0,0,0,.9.3,1.37,1.37,0,0,0,1.4-1.4V780a2.72,2.72,0,0,0,.8,1c1.1.8,2.4,1.7,3.3,2.5a2,2,0,0,0,1.5.5,2.58,2.58,0,0,0,1.9-1,46.15,46.15,0,0,0,7-16,20.5,20.5,0,0,1,1.5,1.9,2.2,2.2,0,0,0,1.9.9,2.46,2.46,0,0,0,1.9-.9l2.4-3.2a2.4,2.4,0,0,0,0-2.8,54.17,54.17,0,0,0-5.6-6.3c.7-5.2,1.2-11.2,1.5-19.3a.1.1,0,0,1,.1-.1h9.2v.1c-.1,4.5-.2,8-.5,11.1-.9-.7-1.8-1.5-3-2.3a2.39,2.39,0,0,0-1.4-.5,2.14,2.14,0,0,0-1.8.9l-2.1,2.6a2.24,2.24,0,0,0,.4,3.2c2.2,1.8,4.5,3.8,6.8,6-1.5,8.6-3.9,14.8-7.7,19.4a2.27,2.27,0,0,0-.5,1.8,2.34,2.34,0,0,0,1,1.6c1.2.9,2.5,1.8,3.5,2.7a2.46,2.46,0,0,0,1.5.5,2.84,2.84,0,0,0,1.9-.9c3.4-4.5,5.9-10.3,7.6-17.4q1.5,1.8,2.7,3.3a2.2,2.2,0,0,0,1.9.9,2.28,2.28,0,0,0,1.9-1l2.5-3.3a2.4,2.4,0,0,0,0-2.8,88.82,88.82,0,0,0-7-7.8c.6-5,1-10.7,1.2-18a.1.1,0,0,1,.1-.1h6.3a.1.1,0,0,1,.1.1v43.6c0,.9-.2,1-1.1,1.1h-.1a3.6,3.6,0,0,0-3.2,3.9,3.88,3.88,0,0,0,3.6,3.8c1.5.1,2.8.2,3.8.2a6.5,6.5,0,0,0,2.6-.3c3.2-1.5,3.8-4.5,3.8-8.4v-51A2.56,2.56,0,0,0,664.7,728.3Zm-40.6,9.1h.1v.1q-.15,6.6-.6,12.3c-1.2-1-2.3-1.9-3.4-2.7a2.39,2.39,0,0,0-1.4-.5,2.46,2.46,0,0,0-1.9.9l-2,2.7a.76.76,0,0,0-.2.4V737.5a.1.1,0,0,1,.1-.1Zm-9.3,41V752.7a2.41,2.41,0,0,0,.6.8c2.3,1.8,4.7,4,7,6.2-1.4,7.8-3.8,13.8-7.3,18.1Z" transform="translate(0 0.02)" fill="#fff"/>
    <path d="M763.2,649.6A13.6,13.6,0,1,1,749.6,636h0a13.68,13.68,0,0,1,13.6,13.6ZM740.4,159.9c-61.4-28.4-149.8-46.5-232.9-39.8,4.2-27.5,14.5-46.7,31.3-50.7,23.2-5.6,48.5,9.7,72.7,37.5,15.8,2,34.6,5.7,47.6,8.7C615.1,32.8,556-13.6,511.1,3.5c-34.2,13-51.7,60.1-49.6,123.3-44.5,9.5-79.2,26.3-101.4,50.5-1.1,1.3-3.7,4.6-2.8,6.2.7,1.2,3-.1,3.9-.8,25.8-18,58.7-27.8,101.7-33.9,6.1,67.4,34.6,153,82,221.6-25.9,10.2-47.6,10.8-59.6-1.8-16.4-17.3-15.9-46.9-3.9-81.7-6.1-14.7-12.4-32.8-16.3-45.6-49.7,79.5-60.4,153.9-23.1,184.2,28.4,23.1,77.8,14.7,131.5-18.7,30.5,33.8,62.4,55.4,94.4,62.6,1.7.3,5.8.9,6.7-.7.7-1.2-1.6-2.5-2.7-3-28.5-13.3-53.4-37-80.2-71.1,55.3-39,115.1-106.5,150.9-181.8,21.8,17.4,33.2,35.9,28.3,52.5-6.8,22.9-32.7,37.2-68.8,44.2-9.7,12.7-22.2,27.1-31.3,36.9,93.7,3.3,163.5-24.7,171.1-72.1,5.8-36.1-26.2-74.8-82-104.6,14.1-43.3,16.8-81.7,7-113.1-.6-1.6-2.1-5.5-4-5.5-1.4,0-1.4,2.6-1.3,3.8C764.6,86.2,756.6,119.7,740.4,159.9ZM567.8,359.6C528.2,296,505.3,221,505.4,145.3h0c74.9-2.5,151.2,15.1,216.8,53.2h0c-35.2,66-88.7,123.3-154.4,161.1Zm31.1,372.1a7.1,7.1,0,1,0-7.1,7.1,7,7,0,0,0,7.1-7.1Z" transform="translate(0 0.02)" fill="#148eff"/>
  </g>
</svg>
