<svg id="Layer_1" data-name="Layer 1" xmlns="http://www.w3.org/2000/svg" xmlns:xlink="http://www.w3.org/1999/xlink" viewBox="0 0 256 128"><defs><linearGradient id="linear-gradient" x1="105.53196" y1="38.23708" x2="183.02496" y2="38.99168" gradientTransform="matrix(1, 0, 0, -1, 0, 130)" gradientUnits="userSpaceOnUse"><stop offset="0.01584" stop-color="#2a353d"/><stop offset="1" stop-color="#485560"/></linearGradient><linearGradient id="linear-gradient-2" x1="70.365" y1="17.737" x2="70.365" y2="31.1301" gradientTransform="matrix(1, 0, 0, -1, 0, 130)" gradientUnits="userSpaceOnUse"><stop offset="0" stop-color="#aa835f"/><stop offset="1" stop-color="#b28e75"/></linearGradient><radialGradient id="radial-gradient" cx="-149.39286" cy="435.41415" r="1" gradientTransform="matrix(9.89999, 4.8113, 3.76421, -7.74544, -60.59418, 4165.16321)" gradientUnits="userSpaceOnUse"><stop offset="0.01584" stop-color="#ed186a"/><stop offset="0.9386" stop-color="#f395bf"/></radialGradient><radialGradient id="radial-gradient-2" cx="-190.63026" cy="543.50043" r="1" gradientTransform="matrix(-4.25054, 1.44319, 1.44319, 4.25054, -1499.65483, -1983.08956)" gradientUnits="userSpaceOnUse"><stop offset="0.1124" stop-color="#594539"/><stop offset="0.9842" stop-color="#9b643d"/></radialGradient></defs><path d="M129.015,61.038c0,.1561-.078.2341-.234.3122l-4.527.8585a.40531.40531,0,0,1-.312-.1561l-3.2-10.8488c0-.1561,0-.2341.156-.2341l6.712-1.3269c.157,0,.235.0781.235.1561Z" style="fill:#f2f1f0;fill-rule:evenodd"/><path d="M128.236,60.2576c0,.1561-.078.2342-.234.3122l-3.356.6244a.405.405,0,0,1-.312-.1561l-2.264-7.4927c0-.1561,0-.2341.156-.2341l5.074-1.0147c.156,0,.234.0781.234.1561Z" style="fill:#eaa422;fill-rule:evenodd"/><path d="M116.683,47.2235c-.156,0-.156-.1561-.156-.3122l.156-.4683c0-.1561.157-.1561.313-.1561l4.605,1.8731c.156,0,.234.1561.312.2342l4.995,11.161c.078.078,0,.2341-.078.3122l-.39.1561c-.079.078-.235,0-.313-.1561L121.21,48.9405Z" style="fill:#e3646a"/><path d="M128.391,51.6721a2.46444,2.46444,0,1,1,1.951-2.8878A2.4246,2.4246,0,0,1,128.391,51.6721Z" style="fill:#fff3cd;fill-rule:evenodd"/><path d="M123.984,53.0063l3.02,6.7561c.079.0794,0,.2384-.079.3179l-.398.159c-.079.0794-.238-.0001-.318-.159l-3.1-6.9945Z" style="fill:#e88967"/><path d="M125.582,50.0331l2.107-.3903c.156,0,.234.0781.234.1561l.157,1.9512A2.50172,2.50172,0,0,1,125.582,50.0331Z" style="fill:#eaa422;fill-rule:evenodd"/><path d="M122.567,56.5398a9.40165,9.40165,0,0,1-.6,1.3665c-.143.2333-.229.5666-.372.7999l-2.151,2.8821,1.707,1.419,2.472-1.2311c.579-.3161,1.157-.6323,1.858-1.0983q.7815-.62445,1.265-1.0491c.143-.2332.564-.5829,1.05-1.1826a3.23513,3.23513,0,0,0,.772-1.0662c.086-.3334-.028-.5336-.278-.8506a7.64071,7.64071,0,0,0,.471-.8665c.065-.25.108-.4167.151-.5834a.41149.41149,0,0,0-.25-.3171.71492.71492,0,0,0-.457.1663c-.301.1997-4.467,3.1796-5.381,2.5451C122.746,57.457,122.631,57.2568,122.567,56.5398Z" style="fill:#9b643d"/><path d="M182.792,87.6528c-.312-.3122-.546-.2341-.859.0781l-1.405,1.1707a3.38668,3.38668,0,0,1-2.731.6244l-1.171-.1561a317.03854,317.03854,0,0,0-34.498-2.7317c-18.263-.5464-30.204.3902-30.204.3902-3.435.0781-6.244,2.2634-6.244,4.9171,0,2.9659,3.356,5.2293,7.18,4.761,0,0,14.986-.1561,30.595-1.3269,16.625-1.2487,25.444-2.5756,31.454-3.3561a12.27059,12.27059,0,0,1,2.419,0c.235,0,2.42.7025,2.732.6244a.99386.99386,0,0,0,.703-.5463l2.185-3.3561A1.283,1.283,0,0,0,182.792,87.6528Z" style="fill:url(#linear-gradient)"/><path d="M165.617,89.4867a1.965,1.965,0,0,1,2.805-.8585l2.657,1.4049c.469.2341,1.092-.0781,2.025-1.0927l1.243-1.639c.232-.4683.544-.5464.935-.3122a1.02087,1.02087,0,0,1,.316,1.2488l-1.545,4.6048a.94811.94811,0,0,1-.622.7025.70812.70812,0,0,1-.78,0l-5.623-1.8732A1.6033,1.6033,0,0,1,165.617,89.4867Z" style="fill:#485560"/><path d="M140.722,76.1794l3.122,8.1171s-18.185,13.0342-32.936,13.1123c-4.761,0-5.932-.9366-7.103-4.0586a5.929,5.929,0,0,1,3.825-7.7268Z" style="fill:#485560"/><path d="M142.05,84.6868a4.37075,4.37075,0,1,0-4.37-4.3708A4.37095,4.37095,0,0,0,142.05,84.6868Z" style="fill:#485560"/><path d="M168.743,92.4138l-27.239-8.1952,2.341-7.8829,25.991,13.1122Z" style="fill:#485560"/><path d="M102.011,99.2039,73.1334,40.9013a1.87828,1.87828,0,0,0-2.6537-.8585l-1.2488.5464a1.87817,1.87817,0,0,0-.8585,2.6536l28.8,58.3022a1.87838,1.87838,0,0,0,2.6537.859l1.2489-.625A1.87978,1.87978,0,0,0,102.011,99.2039Z" style="fill:#b2aeaa"/><path d="M191.534,92.0236l-91.083,5.6195a2.35741,2.35741,0,0,0-2.1851,2.4979l.0781.702a2.35628,2.35628,0,0,0,2.498,2.185l91.082-5.619a2.35775,2.35775,0,0,0,2.186-2.4976l-.078-.7025A2.39865,2.39865,0,0,0,191.534,92.0236Z" style="fill:#b2aeaa"/><path d="M195.514,99.5162l6.088,25.4438a1.99434,1.99434,0,0,0,2.419,1.483l1.405-.312a1.99538,1.99538,0,0,0,1.483-2.42l-6.088-25.4435a1.995,1.995,0,0,0-2.419-1.483l-1.405.3122A2.03256,2.03256,0,0,0,195.514,99.5162Z" style="fill:#605d5a"/><path d="M96.3939,104.121l-2.8097,18.342a1.96033,1.96033,0,0,0,1.639,2.263l1.4049.234a1.96032,1.96032,0,0,0,2.2634-1.639l2.8095-18.341a1.96064,1.96064,0,0,0-1.639-2.264l-1.4047-.234A2.01835,2.01835,0,0,0,96.3939,104.121Z" style="fill:#605d5a"/><path d="M62.1302,41.9161,95.6131,109.584a1.8784,1.8784,0,0,0,2.6537.859l1.2488-.624a1.879,1.879,0,0,0,.8584-2.654L66.9692,39.4966a1.87816,1.87816,0,0,0-2.6536-.8586l-1.2488.6244A1.96677,1.96677,0,0,0,62.1302,41.9161Z" style="fill:#605d5a"/><path d="M100.295,108.414l98.029-6.244a2.47084,2.47084,0,0,0,2.341-2.6537v-.3122a2.47049,2.47049,0,0,0-2.653-2.3415L99.9824,103.107a2.47052,2.47052,0,0,0-2.3415,2.653v.312A2.47171,2.47171,0,0,0,100.295,108.414Z" style="fill:#605d5a"/><path d="M70.4028,127.77c8.5779,0,15.5317-1.607,15.5317-3.59s-6.9538-3.59-15.5317-3.59-15.5317,1.607-15.5317,3.59S61.8249,127.77,70.4028,127.77Z" style="fill:#613d31"/><path d="M85.3887,123.399v-.156c-.6244-2.654-4.839-19.434-4.839-19.434H60.5692L55.496,123.165a.70318.70318,0,0,0-.078.39c0,1.951,6.7122,3.512,14.9853,3.512s14.9854-1.561,14.9854-3.512Z" style="fill:#b28e75"/><path d="M88.6669,89.9941H52.5303a.9366.9366,0,0,0,0,1.8732H88.6669a.9017.9017,0,0,0,.9366-.9366A.9491.9491,0,0,0,88.6669,89.9941Z" style="fill:#613d31"/><path d="M88.5894,91.8673l-36.4488-.1561,8.4293,12.0978c.4683.78,4.761,1.405,9.9902,1.405s9.522-.625,9.9903-1.405C80.5504,103.809,88.5894,91.9453,88.5894,91.8673Z" style="fill:url(#linear-gradient-2)"/><path d="M81.0153,88.5894H69.386a.7024.7024,0,0,0,0,1.4048H81.0153a.7024.7024,0,0,0,0-1.4048Z" style="fill:#605d5a"/><path d="M95.9272,38.8722a2.57565,2.57565,0,1,0-2.5756-2.5756A2.57568,2.57568,0,0,0,95.9272,38.8722Z" style="fill:#e0bb95"/><path d="M88.0446,56.4332l-6.9464,2.3414a6.60442,6.60442,0,0,1-8.3512-4.1365s-2.6536-5.9318-2.6536-9.8342c-.0781-7.6488,1.0926-14.4391,8.3512-16.9366a13.90408,13.90408,0,0,1,17.639,8.7415l.7024,2.1853A13.99956,13.99956,0,0,1,88.0446,56.4332Z" style="fill:#e0bb95"/><path d="M108.882,96.5505c2.341-7.961,6.712-9.2878,9.21-13.4244,1.639-2.7317-1.873-1.7952-4.059-4.2147-2.888-3.2-5.151-5.6195-6.556-10.6927-1.171-4.2146-4.058-9.4439-8.195-10.7707-2.0293-.6244-5.9317-.3903-10.1464,3.1219-4.6049,3.8244-.5463,11.0049,1.4049,15.1415.9366,2.0293,3.5122,7.3366,4.6049,9.4439C98.5015,91.7895,107.867,99.8285,108.882,96.5505Z" style="fill:url(#radial-gradient)"/><path d="M93.9343,59.7115a5.6937,5.6937,0,0,0,3.4342-2.3414c-1.1708-.2342-1.561-1.1708-2.3415-3.5903l-2.0293-6.2439L86.6758,49.331l2.1854,5.7756c1.0146,2.4976,1.639,3.9025.8585,4.9952C90.4221,60.414,92.2953,60.1798,93.9343,59.7115Z" style="fill:url(#radial-gradient-2)"/><path d="M95.1456,53.9358l.7805-.3122a7.00473,7.00473,0,0,0,4.3709-8.8975l-1.5612-4.683a6.21557,6.21557,0,0,0-7.9609-3.9024l-2.1854.7805a6.21567,6.21567,0,0,0-3.9024,7.961l3.6683,4.2926C89.6822,53.0773,91.6334,55.1846,95.1456,53.9358Z" style="fill:#9b643d"/><path d="M100.612,46.3537a.55019.55019,0,0,1,.157-.5464,5.294,5.294,0,0,0,.468-.7024.94567.94567,0,0,0,.078-.7805.892.892,0,0,0-.624-.5464,1.59181,1.59181,0,0,1-1.0932-1.0146,1.67783,1.67783,0,0,1-.2341-.7805,6.07412,6.07412,0,0,0,.3122,3.0439A6.48933,6.48933,0,0,0,100.612,46.3537Z" style="fill:#9b643d"/><path d="M87.7707,45.9358l-1.483.4683a1.8453,1.8453,0,0,0-1.0926.9366,1.76635,1.76635,0,0,0-.0781,1.4049,1.84558,1.84558,0,0,0,.9366,1.0926,1.76635,1.76635,0,0,0,1.4049.0781l1.4829-.4683Z" style="fill:#9b643d"/><g style="opacity:0.5"><path d="M99.5143,49.0968a.77087.77087,0,0,1-.5463.5463,2.65324,2.65324,0,0,1-.7805.0781,1.61413,1.61413,0,0,1-1.0927-.7805c-.078-.0781,0-.1561.0781-.2342h.078c.4683.0781.7805.1561,1.0927.2342a.849.849,0,0,0,.3902.078.99051.99051,0,0,0,.4683-.078.287.287,0,0,1,.2342.078C99.5143,49.0187,99.5143,49.0187,99.5143,49.0968Z" style="fill:#75523a"/></g><path d="M94.9882,44.3357a1.15763,1.15763,0,0,1,0-1.0146,1.5313,1.5313,0,0,1,.7024-.7024,1.9223,1.9223,0,0,1,1.7171-.1561.40557.40557,0,0,1,.1561.3122.07646.07646,0,0,1-.0781.078,6.97706,6.97706,0,0,1-1.2487.7024,1.63383,1.63383,0,0,0-.4683.3122c-.1561.0781-.2342.2342-.3903.4683-.078.0781-.2341.1561-.3122.0781Z" style="fill:#2a353d"/><path d="M93.2704,35.6724a3.122,3.122,0,1,0-3.122-3.122A3.122,3.122,0,0,0,93.2704,35.6724Z" style="fill:#e0bb95"/><path d="M89.9149,32.5503a3.122,3.122,0,1,0-3.1219-3.1219A3.122,3.122,0,0,0,89.9149,32.5503Z" style="fill:#e0bb95"/><path d="M84.7665,30.9893a3.122,3.122,0,1,0-3.122-3.122A3.122,3.122,0,0,0,84.7665,30.9893Z" style="fill:#e0bb95"/><path d="M79.6141,31.4575a3.122,3.122,0,1,0-3.1219-3.1219A3.122,3.122,0,0,0,79.6141,31.4575Z" style="fill:#e0bb95"/><path d="M74.7743,33.9551a3.122,3.122,0,1,0-3.122-3.122A3.122,3.122,0,0,0,74.7743,33.9551Z" style="fill:#e0bb95"/><path d="M71.8876,38.7161a3.122,3.122,0,1,0-3.122-3.122A3.122,3.122,0,0,0,71.8876,38.7161Z" style="fill:#e0bb95"/><path d="M71.1845,44.1797a3.122,3.122,0,1,0-3.122-3.122A3.12189,3.12189,0,0,0,71.1845,44.1797Z" style="fill:#e0bb95"/><path d="M71.1063,49.6431a3.122,3.122,0,1,0-3.1219-3.122A3.122,3.122,0,0,0,71.1063,49.6431Z" style="fill:#e0bb95"/><path d="M71.8095,54.9505a3.122,3.122,0,1,0-3.122-3.122A3.122,3.122,0,0,0,71.8095,54.9505Z" style="fill:#e0bb95"/><path d="M75.3993,59.3211a3.122,3.122,0,1,0-3.122-3.122A3.122,3.122,0,0,0,75.3993,59.3211Z" style="fill:#e0bb95"/><path d="M84.2977,60.9602a3.122,3.122,0,1,0-3.1219-3.1219A3.122,3.122,0,0,0,84.2977,60.9602Z" style="fill:#e0bb95"/><path d="M80.0048,61.0384a3.122,3.122,0,1,0-3.122-3.122A3.122,3.122,0,0,0,80.0048,61.0384Z" style="fill:#e0bb95"/><path d="M86.8709,58.5406a4.21465,4.21465,0,1,0-4.2147-4.2146A4.21455,4.21455,0,0,0,86.8709,58.5406Z" style="fill:#e0bb95"/><path d="M88.0434,39.4967a3.59025,3.59025,0,1,0-3.5903-3.5903A3.5903,3.5903,0,0,0,88.0434,39.4967Z" style="fill:#e0bb95"/><path d="M93.6617,37.3893a2.4195,2.4195,0,1,0-2.4195-2.4195A2.41944,2.41944,0,0,0,93.6617,37.3893Z" style="fill:#e0bb95"/><path d="M80.9421,48.238l5.3854-1.7951a3.98189,3.98189,0,0,0,2.4975-5.0732s-.4683-1.4049-.9365-2.7317,1.717-4.2147,1.717-4.2147L77.6641,38.4038Z" style="fill:#e0bb95"/><path d="M123.865,101.077,112.158,84.1408a1.53175,1.53175,0,0,0-2.186-.3902l-.936.6244a1.53006,1.53006,0,0,0-.39,2.1853l11.707,16.9367a1.53054,1.53054,0,0,0,2.185.39l.937-.624A1.53236,1.53236,0,0,0,123.865,101.077Z" style="fill:#605d5a"/><path d="M123.63,103.419l15.844-27.4736a1.62389,1.62389,0,0,0-.547-2.1073l-.936-.5463a1.62487,1.62487,0,0,0-2.108.5463L120.04,101.311a1.62341,1.62341,0,0,0,.546,2.108l.936.546A1.58359,1.58359,0,0,0,123.63,103.419Z" style="fill:#605d5a"/><path d="M103.34,87.6527l51.356-15.2195a2.02234,2.02234,0,0,0,1.327-2.4976l-.391-1.3268a2.02116,2.02116,0,0,0-2.497-1.3268L101.779,82.5015a2.02154,2.02154,0,0,0-1.327,2.4976l.39,1.3268A1.96064,1.96064,0,0,0,103.34,87.6527Z" style="fill:#605d5a"/><path d="M126.206,90.6189c-3.356,3.2-8.741,1.2488-8.741,1.2488l4.371,6.4Z" style="fill:#605d5a"/><path d="M102.95,70.0919c-1.951,0-5.463-3.7464-7.18-5.6976-.0781-.1561-3.4342-4.1366-6.7903-1.8732s-1.0927,6.4-1.0927,6.4,4.8391,6.0878,7.6488,8.1171c2.7317,1.9512,6.0102,3.4341,11.4732.3902,7.259-4.0585,15.22-14.9853,15.22-14.9853l-1.796-2.8098S110.599,70.0919,102.95,70.0919Z" style="fill:#f395bf"/><path d="M159.847,11.321a9.73746,9.73746,0,0,1-3.278,4.761c-.234.2341-.312.6244,0,.7805a11.90366,11.90366,0,0,1,3.512,4.9951.54227.54227,0,0,0,1.015,0,11.482,11.482,0,0,1,3.278-5.1512.47539.47539,0,0,0-.078-.7805,10.2887,10.2887,0,0,1-3.512-4.6049A.47867.47867,0,0,0,159.847,11.321Z" style="fill:#99c9ee"/><path d="M167.571,22.4038a6.77294,6.77294,0,0,1-2.341,3.3561c-.156.1561-.234.3903,0,.5464a9.0408,9.0408,0,0,1,2.497,3.5902.36575.36575,0,0,0,.703,0,8.71527,8.71527,0,0,1,2.341-3.6683c.156-.1561.156-.4683,0-.5463a7.536,7.536,0,0,1-2.497-3.2781C168.118,22.0916,167.649,22.0916,167.571,22.4038Z" style="fill:#f2f1f0"/><path d="M45.3486,60.5698a6.77124,6.77124,0,0,1-2.3414,3.3561c-.1561.1561-.2342.3903,0,.5464a9.03955,9.03955,0,0,1,2.4975,3.5902.36543.36543,0,0,0,.7025,0,8.71189,8.71189,0,0,1,2.3414-3.6683c.1561-.1561.1561-.4683,0-.5463a7.53387,7.53387,0,0,1-2.4975-3.2781C45.895,60.2576,45.4267,60.2576,45.3486,60.5698Z" style="fill:#f395bf"/><path d="M46.2841,20.1404a3.83834,3.83834,0,0,1-1.4049,2.0293.25741.25741,0,0,0,0,.3902,4.237,4.237,0,0,1,1.4829,2.1854.24389.24389,0,0,0,.4683,0,5.28453,5.28453,0,0,1,1.4049-2.2634.34852.34852,0,0,0,0-.3902,3.57463,3.57463,0,0,1-1.4829-2.0293A.29412.29412,0,0,0,46.2841,20.1404Z" style="fill:#fff3cd"/><path d="M189.114,54.7941a6.77359,6.77359,0,0,1-2.341,3.3562c-.156.156-.234.3902,0,.5463a9.0413,9.0413,0,0,1,2.497,3.5902.36577.36577,0,0,0,.703,0,8.71565,8.71565,0,0,1,2.341-3.6683c.156-.1561.156-.4682,0-.5463a7.536,7.536,0,0,1-2.497-3.2781C189.661,54.4039,189.192,54.4039,189.114,54.7941Z" style="fill:#a2ce62"/><path d="M194.969,86.4041l1.014.3902a.667.667,0,0,0,.469-1.2488l-1.015-.3902a.63211.63211,0,0,0-.859.3902A.78559.78559,0,0,0,194.969,86.4041Z" style="fill:#eaa422"/><path d="M198.714,96.8624V93.2722a.312.312,0,1,0-.624,0v3.5902Z" style="fill:#eaa422"/><path d="M197.703,96.8624V93.2722a.3125.3125,0,0,0-.625,0v3.5902Z" style="fill:#eaa422"/><path d="M198.95,83.9846a2.46925,2.46925,0,0,1,1.561,2.4976,3.68236,3.68236,0,0,0,1.327,3.7463l2.419,2.0293a.59954.59954,0,0,1,.078.7805,2.824,2.824,0,0,1-2.497,1.0146,4.97448,4.97448,0,0,1-6.946-6.4l.936-2.2634A2.39584,2.39584,0,0,1,198.95,83.9846Z" style="fill:#fff3cd"/><path d="M198.171,92.4919c-.156-.0781-.234-.2342-.39-.3902a1.52628,1.52628,0,0,1,2.185-2.1074l2.497,2.1074A3.00269,3.00269,0,0,1,198.171,92.4919Z" style="fill:#eaa422"/><path d="M197.664,86.5203c.157-.4013.122-.7904-.079-.869-.2-.0787-.491.1829-.648.5842s-.122.7904.079.8691C197.216,87.1832,197.506,86.9216,197.664,86.5203Z"/></svg>